<svg xmlns="http://www.w3.org/2000/svg" viewBox="0 0 760 160">
  <g fill="none" fill-rule="evenodd">
    <g transform="translate(10 10)">
      <circle cx="70" cy="70" r="52" stroke="#D9A33A" stroke-width="12" stroke-dasharray="265 40" stroke-linecap="round"/>
      <path d="M72 18c17 0 32 6 43 16l-12 16c-8-7-18-11-31-11-23 0-40 17-40 41s17 41 40 41c21 0 37-13 41-32H80V69h46v10c0 31-23 55-54 55-31 0-55-24-55-54S41 18 72 18Z" fill="#D9A33A"/>
      <path d="M43 31l28 37 33-44" stroke="#D9A33A" stroke-width="12" stroke-linecap="round" stroke-linejoin="round"/>
    </g>
    <g transform="translate(160 34)">
      <text fill="#5D99A7" font-family="Arial, Helvetica, sans-serif" font-size="64" font-weight="700" letter-spacing="8">
        <tspan x="0" y="60">CAREVANCE</tspan>
      </text>
      <text fill="#D9A33A" font-family="Arial, Helvetica, sans-serif" font-size="32" font-weight="500" letter-spacing="9">
        <tspan x="8" y="114">TRUST THE PROCESS</tspan>
      </text>
    </g>
  </g>
</svg>
