<svg xmlns="http://www.w3.org/2000/svg" viewBox="0 0 160 160">
  <g fill="none" fill-rule="evenodd" transform="translate(10 10)">
    <circle cx="70" cy="70" r="52" stroke="#D9A33A" stroke-width="12" stroke-dasharray="265 40" stroke-linecap="round"/>
    <path d="M72 18c17 0 32 6 43 16l-12 16c-8-7-18-11-31-11-23 0-40 17-40 41s17 41 40 41c21 0 37-13 41-32H80V69h46v10c0 31-23 55-54 55-31 0-55-24-55-54S41 18 72 18Z" fill="#D9A33A"/>
    <path d="M43 31l28 37 33-44" stroke="#D9A33A" stroke-width="12" stroke-linecap="round" stroke-linejoin="round"/>
  </g>
</svg>
